# xmcd CD database file
# Copyright (C) 1993-1998 Ti Kan
#
# Track frame offsets:
#	150
#	14461
#	28475
#	40906
#	55375
#	69262
#	85272
#	98307
#	122395
#	136154
#	147749
#	160778
#	172153
#	184879
#	197742
#	210474
#
# Disc length: 3003 seconds
#
# Revision: 1
# Processed by: cddbd v1.4b41PL1 Copyright (c) Steve Scherf et al.
# Submitted via: CDValet v3.31 - Copyright (c) 1997 Greg Leichner
#
DISCID=e00bb910
DTITLE=Various Artist - Full Spectrum Blues, Disk one, Rural Blues
DYEAR=1900
DGENRE=
TTITLE0=Mississsippi Boweavil Blues
TTITLE1=Red River Blues
TTITLE2=Long Gone Last John
TTITLE3=Take Me Back
TTITLE4=That Will Never Happen No More
TTITLE5=Stop And Listen Blues
TTITLE6=Black Snake Moan
TTITLE7=Delta Blues
TTITLE8=Lord I Just Can't Keep From Crying
TTITLE9=Going' To Germany
TTITLE10=Ramblin' On My Mind
TTITLE11=Statesboro Blues
TTITLE12=Fixin To Die Blues
TTITLE13=Crawlin' King Snake
TTITLE14=Harrmonica Stomp
TTITLE15=Des'e My Blues
EXTD=
EXTT0=
EXTT1=
EXTT2=
EXTT3=
EXTT4=
EXTT5=
EXTT6=
EXTT7=
EXTT8=
EXTT9=
EXTT10=
EXTT11=
EXTT12=
EXTT13=
EXTT14=
EXTT15=
PLAYORDER=
